<svg width="512" height="512" viewBox="0 0 512 512" fill="none" xmlns="http://www.w3.org/2000/svg">
<path d="M428.559 130.619C419.25 108.447 405.706 88.2943 388.684 71.2839C371.712 54.2439 351.552 40.6962 329.348 31.4097C306.601 21.8504 282.162 16.9502 257.481 17.0004H256.651C231.547 17.1246 207.273 22.0933 184.41 31.8652C162.397 41.2468 142.426 54.8187 125.614 71.8222C108.756 88.7943 95.3676 108.877 86.1945 130.95C76.6723 153.904 71.8474 178.527 72.0037 203.37C72.1282 232.106 79.0161 260.635 91.8792 286.141V349.078C91.8792 359.595 100.427 368.125 110.925 368.125H173.912C199.592 381.056 227.929 387.859 256.692 388H257.564C282.377 388 306.402 383.197 329.057 373.798C351.149 364.622 371.234 351.232 388.186 334.379C405.281 317.444 418.725 297.652 428.144 275.582C437.895 252.726 442.874 228.42 442.999 203.328C443.082 178.112 438.186 153.641 428.559 130.619ZM174.659 222.375C163.705 222.375 154.784 213.473 154.784 202.5C154.784 191.528 163.705 182.625 174.659 182.625C185.613 182.625 194.535 191.528 194.535 202.5C194.535 213.473 185.655 222.375 174.659 222.375ZM257.481 222.375C246.526 222.375 237.605 213.473 237.605 202.5C237.605 191.528 246.526 182.625 257.481 182.625C268.435 182.625 277.356 191.528 277.356 202.5C277.356 213.473 268.435 222.375 257.481 222.375ZM340.302 222.375C329.348 222.375 320.427 213.473 320.427 202.5C320.427 191.528 329.348 182.625 340.302 182.625C351.256 182.625 360.178 191.528 360.178 202.5C360.178 213.473 351.256 222.375 340.302 222.375Z" fill="url(#paint0_linear_115_2)"/>
<path d="M144.76 468.72H164.12V480H129.48V469.12L148.04 446.64H129.64V435.36H163.72V446.24L144.76 468.72ZM215.728 435.36V480H202.048V473.92C200.661 475.893 198.768 477.493 196.368 478.72C194.021 479.893 191.408 480.48 188.528 480.48C185.114 480.48 182.101 479.733 179.488 478.24C176.874 476.693 174.848 474.48 173.408 471.6C171.968 468.72 171.248 465.333 171.248 461.44V435.36H184.848V459.6C184.848 462.587 185.621 464.907 187.168 466.56C188.714 468.213 190.794 469.04 193.408 469.04C196.074 469.04 198.181 468.213 199.728 466.56C201.274 464.907 202.048 462.587 202.048 459.6V435.36H215.728ZM239.234 441.68C240.567 439.6 242.407 437.92 244.754 436.64C247.1 435.36 249.847 434.72 252.994 434.72C256.674 434.72 260.007 435.653 262.994 437.52C265.98 439.387 268.327 442.053 270.034 445.52C271.794 448.987 272.674 453.013 272.674 457.6C272.674 462.187 271.794 466.24 270.034 469.76C268.327 473.227 265.98 475.92 262.994 477.84C260.007 479.707 256.674 480.64 252.994 480.64C249.9 480.64 247.154 480 244.754 478.72C242.407 477.44 240.567 475.787 239.234 473.76V501.28H225.554V435.36H239.234V441.68ZM258.754 457.6C258.754 454.187 257.794 451.52 255.874 449.6C254.007 447.627 251.687 446.64 248.914 446.64C246.194 446.64 243.874 447.627 241.954 449.6C240.087 451.573 239.154 454.267 239.154 457.68C239.154 461.093 240.087 463.787 241.954 465.76C243.874 467.733 246.194 468.72 248.914 468.72C251.634 468.72 253.954 467.733 255.874 465.76C257.794 463.733 258.754 461.013 258.754 457.6ZM293.531 441.68C294.864 439.6 296.704 437.92 299.051 436.64C301.397 435.36 304.144 434.72 307.291 434.72C310.971 434.72 314.304 435.653 317.291 437.52C320.277 439.387 322.624 442.053 324.331 445.52C326.091 448.987 326.971 453.013 326.971 457.6C326.971 462.187 326.091 466.24 324.331 469.76C322.624 473.227 320.277 475.92 317.291 477.84C314.304 479.707 310.971 480.64 307.291 480.64C304.197 480.64 301.451 480 299.051 478.72C296.704 477.44 294.864 475.787 293.531 473.76V501.28H279.851V435.36H293.531V441.68ZM313.051 457.6C313.051 454.187 312.091 451.52 310.171 449.6C308.304 447.627 305.984 446.64 303.211 446.64C300.491 446.64 298.171 447.627 296.251 449.6C294.384 451.573 293.451 454.267 293.451 457.68C293.451 461.093 294.384 463.787 296.251 465.76C298.171 467.733 300.491 468.72 303.211 468.72C305.931 468.72 308.251 467.733 310.171 465.76C312.091 463.733 313.051 461.013 313.051 457.6ZM331.428 457.6C331.428 453.013 332.281 448.987 333.988 445.52C335.748 442.053 338.121 439.387 341.108 437.52C344.094 435.653 347.428 434.72 351.108 434.72C354.254 434.72 357.001 435.36 359.348 436.64C361.748 437.92 363.588 439.6 364.868 441.68V435.36H378.548V480H364.868V473.68C363.534 475.76 361.668 477.44 359.268 478.72C356.921 480 354.174 480.64 351.028 480.64C347.401 480.64 344.094 479.707 341.108 477.84C338.121 475.92 335.748 473.227 333.988 469.76C332.281 466.24 331.428 462.187 331.428 457.6ZM364.868 457.68C364.868 454.267 363.908 451.573 361.988 449.6C360.121 447.627 357.828 446.64 355.108 446.64C352.388 446.64 350.068 447.627 348.148 449.6C346.281 451.52 345.348 454.187 345.348 457.6C345.348 461.013 346.281 463.733 348.148 465.76C350.068 467.733 352.388 468.72 355.108 468.72C357.828 468.72 360.121 467.733 361.988 465.76C363.908 463.787 364.868 461.093 364.868 457.68Z" fill="white"/>
<defs>
<linearGradient id="paint0_linear_115_2" x1="71.5896" y1="-8.43972" x2="442.589" y2="388" gradientUnits="userSpaceOnUse">
<stop stop-color="#9068FE"/>
<stop offset="1" stop-color="#5720EE"/>
</linearGradient>
</defs>
</svg>
